osimModel_states
version=1
nRows=34
nColumns=17
inDegrees=yes

# SIMM Motion File Header:
name osimModel_states
datacolumns 17
datarows 34
otherdata 1
range 0.48093688 0.63224810
endheader
time	blockToGround_xRotation	blockToGround_yRotation	blockToGround_zRotation	blockToGround_xTranslation	blockToGround_yTranslation	blockToGround_zTranslation	blockToGround_xRotation_u	blockToGround_yRotation_u	blockToGround_zRotation_u	blockToGround_xTranslation_u	blockToGround_yTranslation_u	blockToGround_zTranslation_u	muscle1.activation	muscle1.fiber_length	muscle2.activation	muscle2.fiber_length
      0.48093688	      0.20920677	      0.02097290	      0.00931020	     -0.00009791	     -0.00028971	      0.05162625	     -0.91369718	     -0.15474513	     -0.73811660	     -0.00021111	     -0.03242593	      0.04097229	      0.00000007	      0.15130785	      0.16664407	      0.04673168
      0.48618422	      0.20872751	      0.02003173	      0.00487595	     -0.00009796	     -0.00036614	      0.05181737	      0.90506314	     -0.19049913	     -0.92756016	      0.00019960	      0.00653575	      0.03151285	      0.00000006	      0.15151432	      0.16663604	      0.04652641
      0.49143156	      0.21537593	      0.01900514	     -0.00025210	     -0.00009603	     -0.00023585	      0.05196491	      1.01538472	     -0.18974629	     -1.01751494	      0.00050156	      0.03744132	      0.02612939	      0.00000005	      0.15168286	      0.16661103	      0.04635299
      0.49667889	      0.21286210	      0.01802376	     -0.00563761	     -0.00009305	     -0.00005668	      0.05210757	     -2.17919900	     -0.17566006	     -1.02161762	      0.00061187	      0.02405115	      0.02942399	      0.00000004	      0.15182790	      0.16656899	      0.04620408
      0.50192623	      0.19453650	      0.01713146	     -0.01084643	     -0.00008974	     -0.00002346	      0.05228055	     -4.68858413	     -0.15479220	     -0.95002849	      0.00064530	     -0.01239293	      0.03661931	      0.00000004	      0.15198447	      0.16649928	      0.04604973
      0.50593562	      0.17191751	      0.01656603	     -0.01437929	     -0.00008711	     -0.00012419	      0.05243664	     -6.56734467	     -0.11602096	     -0.78798824	      0.00066153	     -0.03549596	      0.04065295	      0.00000004	      0.15212494	      0.16641840	      0.04591445
      0.50994501	      0.14469557	      0.01622059	     -0.01699585	     -0.00008447	     -0.00027504	      0.05259867	     -6.42335646	     -0.04997034	     -0.50699451	      0.00064650	     -0.03473972	      0.03902469	      0.00000003	      0.15227999	      0.16630844	      0.04576502
      0.51532811	      0.12073362	      0.01620819	     -0.01863292	     -0.00008136	     -0.00036935	      0.05278395	     -2.11505528	      0.04525707	     -0.10291438	      0.00048093	      0.00380838	      0.02929147	      0.00000003	      0.15248008	      0.16611567	      0.04556740
      0.52071121	      0.11931472	      0.01665654	     -0.01813883	     -0.00007948	     -0.00024322	      0.05292242	      0.95666483	      0.11629078	      0.28671663	      0.00021874	      0.03740264	      0.02371529	      0.00000002	      0.15264034	      0.16587920	      0.04540301
      0.52609431	      0.12339739	      0.01744157	     -0.01554029	     -0.00007879	     -0.00005765	      0.05305697	      0.05877988	      0.17012018	      0.65913227	      0.00006272	      0.02357835	      0.02757146	      0.00000002	      0.15277640	      0.16560163	      0.04526421
      0.53147741	      0.11888959	      0.01845140	     -0.01142163	     -0.00007861	     -0.00003938	      0.05322716	     -1.68541855	      0.20010289	      0.85698514	      0.00000677	     -0.01737800	      0.03565589	      0.00000002	      0.15292762	      0.16527375	      0.04511733
      0.53509324	      0.11080853	      0.01921494	     -0.00811403	     -0.00007869	     -0.00014301	      0.05336335	     -2.57406757	      0.21734992	      0.96529278	     -0.00006412	     -0.03710225	      0.03899807	      0.00000002	      0.15304923	      0.16501844	      0.04500193
      0.53870907	      0.10318506	      0.02001780	     -0.00455932	     -0.00007918	     -0.00027935	      0.05350267	     -1.23938042	      0.21976543	      0.98414885	     -0.00021743	     -0.03421421	      0.03717184	      0.00000002	      0.15318267	      0.16473188	      0.04487488
      0.54397991	      0.10847992	      0.02111837	      0.00036213	     -0.00008105	     -0.00036921	      0.05367653	      3.34664568	      0.18822653	      0.86340491	     -0.00047821	      0.00395592	      0.02852784	      0.00000001	      0.15336974	      0.16426048	      0.04469226
      0.54925076	      0.13366114	      0.02198085	      0.00441459	     -0.00008389	     -0.00024666	      0.05381301	      5.50263179	      0.13523455	      0.66406382	     -0.00056902	      0.03716694	      0.02465161	      0.00000001	      0.15352345	      0.16373336	      0.04453723
      0.55367755	      0.15588893	      0.02249056	      0.00687015	     -0.00008639	     -0.00008524	      0.05392658	      4.15852337	      0.09374303	      0.44618270	     -0.00055447	      0.02999280	      0.02743590	      0.00000001	      0.15363788	      0.16324978	      0.04442274
      0.55810434	      0.16967408	      0.02283618	      0.00843890	     -0.00008880	     -0.00001637	      0.05406072	      2.15979523	      0.06126974	      0.27005077	     -0.00053445	     -0.00048686	      0.03336352	      0.00000001	      0.15375980	      0.16272493	      0.04430499
      0.56253113	      0.17501798	      0.02303081	      0.00923103	     -0.00009110	     -0.00008860	      0.05422099	      0.18614223	      0.02264064	      0.07437054	     -0.00050256	     -0.03029936	      0.03856889	      0.00000001	      0.15390279	      0.16215257	      0.04417028
      0.56586665	      0.17340051	      0.02303256	      0.00912368	     -0.00009268	     -0.00020851	      0.05435169	     -0.90859373	     -0.02303180	     -0.14383662	     -0.00043097	     -0.03843802	      0.03907214	      0.00000001	      0.15402448	      0.16168680	      0.04405594
      0.56920217	      0.17116949	      0.02288155	      0.00832384	     -0.00009389	     -0.00032185	      0.05447655	     -0.15247887	     -0.06452222	     -0.32755732	     -0.00028017	     -0.02637483	      0.03516484	      0.00000001	      0.15415004	      0.16119108	      0.04393659
      0.57373550	      0.17569942	      0.02248980	      0.00640803	     -0.00009453	     -0.00036280	      0.05461734	      2.09277150	     -0.10155092	     -0.50890949	     -0.00000061	      0.00981760	      0.02706770	      0.00000001	      0.15430659	      0.16047323	      0.04378391
      0.57918765	      0.18886881	      0.02187190	      0.00313250	     -0.00009378	     -0.00021335	      0.05475059	      2.05294498	     -0.11833066	     -0.68882210	      0.00024869	      0.03824719	      0.02328950	      0.00000001	      0.15445815	      0.15955125	      0.04363207
      0.58355810	      0.19255653	      0.02132879	     -0.00011805	     -0.00009247	     -0.00006393	      0.05485721	     -0.50257626	     -0.12429369	     -0.78721309	      0.00033738	      0.02529220	      0.02619862	      0.00000001	      0.15456506	      0.15876819	      0.04352661
      0.58792854	      0.18555851	      0.02077526	     -0.00362288	     -0.00009091	     -0.00001743	      0.05498330	     -2.59474489	     -0.12225510	     -0.80677264	      0.00037422	     -0.00510082	      0.03163515	      0.00000000	      0.15467951	      0.15794248	      0.04341797
      0.59214184	      0.17057924	      0.02026825	     -0.00697540	     -0.00008927	     -0.00009995	      0.05512667	     -4.55020591	     -0.11045923	     -0.77177922	      0.00040653	     -0.03217261	      0.03593747	      0.00000000	      0.15480787	      0.15710109	      0.04329887
      0.59592055	      0.15147052	      0.01989390	     -0.00968473	     -0.00008766	     -0.00023947	      0.05526311	     -5.11941926	     -0.08106457	     -0.64967777	      0.00044558	     -0.03737483	      0.03530761	      0.00000000	      0.15493672	      0.15630571	      0.04317932
      0.59969926	      0.13533426	      0.01965535	     -0.01181919	     -0.00008593	     -0.00034985	      0.05538664	     -3.10173043	     -0.04140871	     -0.47506355	      0.00045926	     -0.01758382	      0.02947216	      0.00000000	      0.15506581	      0.15547242	      0.04305749
      0.60420618	      0.12865473	      0.01957305	     -0.01344762	     -0.00008398	     -0.00034482	      0.05550113	     -0.07507519	      0.00501721	     -0.24558781	      0.00039334	      0.01960199	      0.02193405	      0.00000000	      0.15519892	      0.15443440	      0.04292810
      0.60871309	      0.13077361	      0.01967562	     -0.01401170	     -0.00008245	     -0.00020175	      0.05559385	      0.57429441	      0.03977430	     -0.00146019	      0.00028760	      0.03853590	      0.02024287	      0.00000000	      0.15530487	      0.15335418	      0.04282328
      0.61562763	      0.12655580	      0.02011411	     -0.01280032	     -0.00008083	     -0.00002404	      0.05575279	     -2.04906271	      0.08479684	      0.33019527	      0.00019788	      0.00401003	      0.02686177	      0.00000000	      0.15545585	      0.15161486	      0.04268006
      0.61975461	      0.11525153	      0.02051240	     -0.01115428	     -0.00008007	     -0.00007260	      0.05587443	     -3.42314966	      0.10755943	      0.47154251	      0.00016295	     -0.02637729	      0.03177491	      0.00000000	      0.15556287	      0.15052332	      0.04258306
      0.62388160	      0.10015880	      0.02101657	     -0.00890196	     -0.00007958	     -0.00021525	      0.05600889	     -3.40092088	      0.13355223	      0.60989098	      0.00005870	     -0.03790558	      0.03231932	      0.00000000	      0.15568693	      0.14938706	      0.04247099
      0.62800858	      0.09126351	      0.02159959	     -0.00625753	     -0.00007973	     -0.00034268	      0.05613253	     -0.58536906	      0.14344202	      0.65806059	     -0.00013887	     -0.01949195	      0.02691896	      0.00000000	      0.15581452	      0.14820607	      0.04235363
      0.63224810	      0.09595037	      0.02219419	     -0.00347925	     -0.00008074	     -0.00035247	      0.05623292	      2.53962790	      0.13183072	      0.64716879	     -0.00032525	      0.01519823	      0.02101542	      0.00000000	      0.15592960	      0.14695078	      0.04224476
